<?xml version="1.0" encoding="utf-8"?>
<!-- Generator: Adobe Illustrator 24.1.3, SVG Export Plug-In . SVG Version: 6.00 Build 0)  -->
<svg version="1.1" xmlns="http://www.w3.org/2000/svg" xmlns:xlink="http://www.w3.org/1999/xlink" x="0px" y="0px"
	 viewBox="0 0 566.93 566.93" style="enable-background:new 0 0 566.93 566.93;" xml:space="preserve">
<style type="text/css">
	.st0{fill:#737373;}
	.st1{fill:#EC1C24;}
	.st2{fill:#FFFFFF;stroke:#231F20;stroke-miterlimit:10;}
	.st3{fill:#231F20;}
	.st4{fill:none;stroke:#231F20;stroke-miterlimit:10;}
	.st5{fill:none;stroke:#FFFFFF;stroke-miterlimit:10;}
	.st6{fill:#EA1F27;}
	.st7{fill:#221F1F;}
	.st8{fill:#6FB9D0;}
	.st9{fill:#FFFFFF;}
</style>
<g id="BG">
</g>
<g id="Layer_6">
</g>
<g id="NBH_-_Logo">
	<g id="Walkway_Bold_1_">
		<g>
			<g>
				<path class="st3" d="M131.75,440.57l-24.72,0l0-71.33l28.72,0c11.71,0,20.62,3.19,26.72,9.58c5.82,6.17,8.73,14.9,8.73,26.2
					c0,11.64-3.72,20.58-11.15,26.83C153.1,437.66,143.67,440.57,131.75,440.57z M158.58,382.39c-5.12-5.47-12.77-8.21-22.94-8.21
					l-23.25,0l0,61.44l19.67,0c10.67,0,18.96-2.6,24.88-7.79c5.93-5.19,8.89-12.8,8.89-22.83
					C165.83,395.05,163.42,387.51,158.58,382.39z"/>
				<path class="st3" d="M178.56,440.57l0-71.33l54.29,0l0,4.95l-48.92,0l0,26.83l43.34,0l0,4.95l-43.34,0l0,29.67l49.45,0v4.94
					L178.56,440.57z"/>
				<path class="st3" d="M268.3,441.3c-9.18,0-16.55-1.65-22.09-4.95c-6.94-4-10.42-10.27-10.42-18.83V415h5.37l0,2.11
					c0,12.84,9.08,19.25,27.25,19.25c6.24,0,11.47-0.95,15.67-2.84c5.4-2.45,8.1-6.24,8.1-11.36c0-3.58-0.98-6.31-2.94-8.21
					c-1.62-1.54-4.39-2.91-8.31-4.1c-2.11-0.56-7.09-1.68-14.94-3.37c-9.05-1.89-15.15-3.64-18.3-5.26
					c-6.39-3.23-9.58-8.03-9.58-14.41c0-12.2,9.4-18.3,28.2-18.3c19.63,0,29.56,7.64,29.77,22.93h-5.26
					c-0.42-7.36-2.94-12.31-7.57-14.83c-3.79-2.1-9.43-3.16-16.94-3.16c-15.22,0-22.83,4.46-22.83,13.36c0,4.35,2.06,7.61,6.21,9.79
					c2.88,1.47,7.75,2.84,14.63,4.1c12.76,2.25,21.29,4.67,25.56,7.26c5.12,3.09,7.68,7.93,7.68,14.52c0,6.59-3.4,11.57-10.21,14.94
					C282.09,440,275.74,441.3,268.3,441.3z"/>
				<path class="st3" d="M305.44,440.57l0-71.33l5.37,0l0,71.33H305.44z"/>
				<path class="st3" d="M379.61,434.67c-6.46,4.42-14.21,6.63-23.25,6.63c-11.92,0-21.35-3.09-28.3-9.26
					c-7.23-6.38-10.84-15.36-10.84-26.93c0-11.29,3.46-20.22,10.37-26.77c6.9-6.56,16.25-9.84,28.04-9.84
					c8.76,0,16.06,1.75,21.88,5.26c6.59,4,10.87,10.63,12.83,19.88h-5.47c-3.09-13.46-12.8-20.2-29.14-20.2
					c-10.24,0-18.32,2.81-24.25,8.42c-5.93,5.61-8.89,13.33-8.89,23.15c0,10.03,3,17.76,9.01,23.2c6.01,5.43,14.28,8.15,24.81,8.15
					c8.08,0,14.93-2.07,20.55-6.21c6.04-4.42,9.06-10.27,9.06-17.57v-1.89l-30.72,0l0-4.95l35.77,0c0.21,2.31,0.32,4.18,0.32,5.58
					C391.39,421.49,387.46,429.27,379.61,434.67z"/>
				<path class="st3" d="M456.51,440.56l-51.85-63.46l0,63.46l-5.37,0l0-71.33l5.58,0c6.03,7.65,14.65,18.2,25.88,31.67
					c12.14,14.45,20.76,24.9,25.89,31.35l0-63.02h5.36l0,71.33H456.51z"/>
			</g>
		</g>
	</g>
	<g>
		<path class="st8" d="M461.95,350.83l0-72.04c0-14.23-3.47-25.19-10.43-32.86c-6.95-7.68-17.7-11.52-32.25-11.52
			c-3.72,0-7.48,0.53-11.29,1.58c-3.8,1.05-7.4,2.5-10.79,4.36c-3.39,1.86-6.47,4.09-9.22,6.67c-2.75,2.59-5.02,5.42-6.78,8.49
			h-0.49l0-143.29h-0.25c-0.02-3.44-0.04-5.7-0.07-6.23c-0.16-3.79-1.17-7.61-3.03-11.47c-1.86-3.86-5.02-7.26-9.46-10.19
			c-4.19-2.77-10.16-4.23-17.88-4.39c-0.22,0-28.42,0-89.28-0.01l0,13.92c61.36,0.02,88.77,0.04,89.15,0.08
			c2.75,0.24,5.04,0.9,6.86,1.98c2.35,1.39,4.09,3.21,5.22,5.45c1.13,2.24,1.85,4.67,2.18,7.29c0.33,2.64,0.49,92.84,0.49,95.46
			l0,36.97h0.07l0,109.75h16.01l0-58.21c0-10.35,1.61-18.43,4.85-24.25c3.23-5.83,6.91-10.19,11.03-13.1
			c4.12-2.91,8.04-4.69,11.76-5.34c3.72-0.64,5.98-0.97,6.8-0.97c11.8,0,19.88,3.36,24.26,10.06c4.36,6.71,6.54,16.37,6.54,28.99
			l0,62.82L461.95,350.83z"/>
		<path class="st1" d="M239.2,294.07c0-6.3,1.13-12.2,3.4-17.71c2.27-5.49,5.41-10.27,9.45-14.31c4.04-4.04,8.81-7.23,14.31-9.59
			c5.5-2.33,11.56-3.51,18.2-3.51c6.62,0,12.57,1.18,17.83,3.51c5.26,2.35,9.74,5.54,13.46,9.59c3.71,4.04,6.58,8.81,8.61,14.31
			c2.02,5.5,3.03,11.4,3.03,17.71c0,6.31-1.01,12.21-3.03,17.71c-2.02,5.5-4.89,10.27-8.61,14.31c-3.72,4.04-8.21,7.24-13.46,9.58
			c-5.25,2.34-11.2,3.52-17.83,3.52c-6.64,0-12.7-1.17-18.2-3.52c-5.5-2.34-10.27-5.54-14.31-9.58c-4.04-4.04-7.19-8.81-9.45-14.31
			C240.33,306.28,239.2,300.38,239.2,294.07 M223.92,80.26l0,270.57l16.01,0l0-18.92l0.48,0c2.58,3.88,5.66,7.19,9.22,9.94
			c3.55,2.75,7.27,5.02,11.16,6.79c3.88,1.78,7.87,3.07,12,3.88c4.12,0.81,8.04,1.21,11.76,1.21c8.89,0,17.01-1.5,24.38-4.48
			c7.35-3,13.7-7.16,19.04-12.49c5.33-5.34,9.49-11.65,12.49-18.92c2.99-7.28,4.49-15.19,4.49-23.77c0-8.57-1.5-16.49-4.49-23.77
			c-2.99-7.27-7.15-13.58-12.49-18.92c-5.34-5.34-11.69-9.49-19.04-12.49c-7.36-2.99-15.48-4.48-24.38-4.48
			c-3.72,0-7.64,0.4-11.76,1.21c-4.13,0.81-8.13,2.1-12,3.88c-3.89,1.77-7.61,4.04-11.16,6.79c-3.55,2.76-6.64,6.06-9.22,9.94h-0.48
			l0-176.05L223.92,80.26z"/>
		<path class="st1" d="M104.05,237.31c0.32,4.21,0.61,8.65,0.85,13.34c0.24,4.69,0.36,8.57,0.36,11.64l0,88.53l16.01,0l0-58.21
			c0-10.35,1.61-18.44,4.85-24.25c3.24-5.83,6.92-10.19,11.04-13.1c4.12-2.91,8.04-4.69,11.76-5.34c3.71-0.65,5.98-0.97,6.79-0.97
			c11.8,0,19.89,3.36,24.26,10.06c4.36,6.72,6.54,16.37,6.54,28.99l0,62.82h16.01l0-72.04c0-14.23-3.47-25.19-10.43-32.87
			c-6.96-7.68-17.7-11.52-32.25-11.52c-3.73,0-7.49,0.53-11.29,1.58c-3.8,1.05-7.4,2.5-10.79,4.36c-3.39,1.86-6.47,4.09-9.21,6.67
			c-2.75,2.59-5.02,5.42-6.79,8.49h-0.48c0-3.07-0.04-6.1-0.12-9.1c-0.09-2.99-0.29-6.02-0.6-9.09L104.05,237.31z"/>
	</g>
</g>
<g id="NBH_-_Socials_3">
</g>
<g id="NBH_-_Socials_2">
</g>
<g id="NBH_-_Socials">
</g>
</svg>
